<svg xmlns="http://www.w3.org/2000/svg" width="694.54" height="49.72" viewBox="0 0 694.54 49.72">
  <g transform="translate(-599 -4875)">
    <g transform="translate(23.554 -0.016)">
      <path
        d="M4750.388,117.144a1.554,1.554,0,0,0-1.554-1.554h-21.752v-4.661a1.554,1.554,0,1,0-3.107,0v4.661h-21.752a1.554,1.554,0,0,0-1.554,1.554c0,4.764,2.04,8.622,4.838,9.591,1.236,5.166,9.535,10.608,20.022,10.608s18.787-5.441,20.022-10.608c2.8-.969,4.838-4.827,4.838-9.591m-6.215,6.733h-37.29c-1.261,0-2.644-2.134-3.009-5.179h43.307c-.365,3.045-1.748,5.179-3.009,5.179m-18.645,10.358c-8.381,0-14.965-3.943-16.655-7.251h33.31c-1.69,3.308-8.274,7.251-16.655,7.251"
        transform="translate(-3563.222 4776.641)" fill="currentColor" />
    </g>
    <g transform="translate(-32.925 0.406)">
      <path
        d="M1797.071,113.414h-21.752v-5.178h4.661a1.554,1.554,0,0,0,0-3.107h-12.43a1.554,1.554,0,0,0,0,3.107h4.661v5.178h-21.752a1.554,1.554,0,0,0-1.554,1.554v6.215a1.554,1.554,0,0,0,1.554,1.554h46.612a1.554,1.554,0,0,0,1.554-1.554v-6.215a1.554,1.554,0,0,0-1.554-1.554m-1.554,6.215h-43.5v-3.107h43.5Z"
        transform="translate(-904.98 4780.466)" fill="currentColor" />
      <path
        d="M1994.215,323.7a.519.519,0,0,0-.518.518v6.041a.518.518,0,1,0,1.036,0v-6.041a.519.519,0,0,0-.518-.518"
        transform="translate(-1125.43 4583.624)" fill="currentColor" />
      <path
        d="M1890.453,315.643l-2.816,4.3a.515.515,0,0,0,.15.716.516.516,0,0,0,.716-.15l2.816-4.295a.515.515,0,0,0-.15-.716.522.522,0,0,0-.716.15"
        transform="translate(-1029.839 4591.093)" fill="currentColor" />
      <path
        d="M2072.462,315.635a.52.52,0,0,0-.716-.15.515.515,0,0,0-.15.716l2.816,4.295a.517.517,0,1,0,.866-.566Z"
        transform="translate(-1195.506 4591.102)" fill="currentColor" />
    </g>
    <g transform="translate(-71.015 0.163)">
      <path
        d="M49.5,94.809a1.314,1.314,0,0,0,.182-.569,1.447,1.447,0,0,0,.036-.177c0-.045-.022-.083-.026-.127s.012-.084,0-.128l-2.072-12.43a1.442,1.442,0,0,0-.064-.168,1.565,1.565,0,0,0-.986-1.034,1.482,1.482,0,0,0-.31-.063,1.448,1.448,0,0,0-.172-.035H43.5V60.4h3.107a1.554,1.554,0,1,0,0-3.107H3.107a1.554,1.554,0,0,0,0,3.107H6.215V80.079H3.625a1.451,1.451,0,0,0-.175.035,1.515,1.515,0,0,0-.31.063,1.489,1.489,0,0,0-.261.119,1.483,1.483,0,0,0-.249.168,1.51,1.51,0,0,0-.2.209,1.479,1.479,0,0,0-.166.246,1.5,1.5,0,0,0-.11.289,1.46,1.46,0,0,0-.065.17L.021,93.808c-.007.044.008.085,0,.128S0,94.018,0,94.063a1.468,1.468,0,0,0,.036.178,1.5,1.5,0,0,0,.062.305,1.489,1.489,0,0,0,.12.264,1.5,1.5,0,0,0,.167.247,1.52,1.52,0,0,0,.21.2,1.493,1.493,0,0,0,.247.167,1.5,1.5,0,0,0,.282.108A1.458,1.458,0,0,0,1.3,95.6a1.6,1.6,0,0,0,.255.02H13.985a1.6,1.6,0,0,0,.255-.02,1.466,1.466,0,0,0,.175-.067,1.506,1.506,0,0,0,.282-.108,1.782,1.782,0,0,0,.457-.366,1.441,1.441,0,0,0,.348-.816,1.447,1.447,0,0,0,.036-.177c0-.045-.022-.083-.026-.127s.012-.084,0-.128l-2.072-12.43a1.432,1.432,0,0,0-.064-.169,1.5,1.5,0,0,0-.111-.291,1.485,1.485,0,0,0-.165-.244,1.349,1.349,0,0,0-.449-.379,1.327,1.327,0,0,0-.572-.181,1.468,1.468,0,0,0-.172-.035H9.322V60.4H23.306V80.079h-2.59a1.451,1.451,0,0,0-.174.035,1.449,1.449,0,0,0-1.014.553,1.485,1.485,0,0,0-.172.255,1.512,1.512,0,0,0-.108.285,1.48,1.48,0,0,0-.065.172l-2.072,12.43c-.007.044.008.085,0,.128s-.026.082-.026.127a1.468,1.468,0,0,0,.036.178,1.586,1.586,0,0,0,.348.816,1.526,1.526,0,0,0,.21.2,1.315,1.315,0,0,0,.529.275,1.458,1.458,0,0,0,.175.067,1.6,1.6,0,0,0,.255.02H31.076a1.6,1.6,0,0,0,.255-.02,1.466,1.466,0,0,0,.175-.067,1.506,1.506,0,0,0,.282-.108,1.782,1.782,0,0,0,.457-.366,1.514,1.514,0,0,0,.167-.247,1.314,1.314,0,0,0,.182-.569,1.447,1.447,0,0,0,.036-.177c0-.045-.022-.083-.026-.127s.012-.084,0-.128l-2.072-12.43a1.45,1.45,0,0,0-.064-.169,1.479,1.479,0,0,0-1.3-1.1A1.471,1.471,0,0,0,29,80.079h-2.59V60.4H40.4V80.079h-2.59a1.447,1.447,0,0,0-.175.035,1.513,1.513,0,0,0-.313.063,1.786,1.786,0,0,0-.51.289,1.512,1.512,0,0,0-.192.2,1.481,1.481,0,0,0-.169.251,1.5,1.5,0,0,0-.109.287,1.45,1.45,0,0,0-.065.171L34.2,93.808c-.007.044.008.085,0,.128s-.026.082-.026.127a1.468,1.468,0,0,0,.036.178,1.32,1.32,0,0,0,.182.569,1.339,1.339,0,0,0,.376.446,1.317,1.317,0,0,0,.529.275,1.458,1.458,0,0,0,.175.067,1.6,1.6,0,0,0,.255.02H48.167a1.6,1.6,0,0,0,.255-.02,1.466,1.466,0,0,0,.175-.067,1.505,1.505,0,0,0,.282-.108,1.782,1.782,0,0,0,.457-.366,1.514,1.514,0,0,0,.167-.247m-37.352-2.3H3.388l1.554-9.322H10.6Zm17.091,0H20.479l1.554-9.322h5.655Zm9.883-9.322h5.655l1.554,9.322H37.57Z"
        transform="translate(670.015 4823.546)" fill="currentColor" />
    </g>
    <g transform="translate(-13.765 0.394)">
      <path
        d="M2780.992,138.524a1.554,1.554,0,0,0,0-3.107H2734.38a1.554,1.554,0,0,0,0,3.107h7.769v5.309l-.732-.732a1.553,1.553,0,0,0-2.2,0l-4.4,4.394a1.553,1.553,0,0,0,0,2.2l8.057,8.058a1.553,1.553,0,0,0,2.2,0l4.4-4.394a1.553,1.553,0,0,0,0-2.2l-4.217-4.218v-8.417h12.43v5.309l-.732-.732a1.553,1.553,0,0,0-2.2,0l-4.4,4.394a1.553,1.553,0,0,0,0,2.2l8.057,8.058a1.553,1.553,0,0,0,2.2,0l4.4-4.394a1.553,1.553,0,0,0,0-2.2l-4.217-4.218v-8.417h12.43v5.309l-.732-.732a1.553,1.553,0,0,0-2.2,0l-4.4,4.394a1.553,1.553,0,0,0,0,2.2l8.057,8.058a1.553,1.553,0,0,0,2.2,0l4.4-4.394a1.553,1.553,0,0,0,0-2.2l-4.217-4.218v-8.417Zm-37.013,15.93-5.86-5.861,2.2-2.2,2.283,2.283.009.008,3.569,3.569Zm15.537,0-5.86-5.861,2.2-2.2,2.283,2.283.009.008,3.569,3.569Zm15.538,0-5.86-5.861,2.2-2.2,2.283,2.283.009.008,3.569,3.569Z"
        transform="translate(-1791.061 4753.189)" fill="currentColor" />
    </g>
    <g transform="translate(5.394 -0.378)">
      <path
        d="M3764.913,42.623H3718.3a1.554,1.554,0,0,0,0,3.107h15.537V71.108a1.554,1.554,0,0,0,1.554,1.554h12.43a1.554,1.554,0,0,0,1.554-1.554c0-.038-.019-.071-.022-.108s.022-.07.022-.108V45.73h15.538a1.554,1.554,0,0,0,0-3.107m-18.645,26.931h-9.322V65.929h9.322Zm0-5.7h-9.322V45.73h9.322Z"
        transform="translate(-2677.141 4836.755)" fill="currentColor" />
      <path
        d="M3962.057,405.294a.518.518,0,0,0-.518.518v4.143a.518.518,0,1,0,1.036,0v-4.143a.518.518,0,0,0-.518-.518"
        transform="translate(-2897.591 4510.148)" fill="currentColor" />
      <path d="M4028.718,378a.518.518,0,1,0-.732.732l2.929,2.929a.518.518,0,1,0,.732-.732Z"
        transform="translate(-2957.293 4534.865)" fill="currentColor" />
      <path
        d="M3868.866,378l-2.929,2.93a.518.518,0,0,0,.732.732l2.929-2.929a.518.518,0,0,0-.732-.732"
        transform="translate(-2811.358 4534.865)" fill="currentColor" />
    </g>
    <g transform="translate(42.713 -0.14)">
      <path
        d="M5700.044,48.574a1.471,1.471,0,0,0,.063-.316c0-.032.019-.059.019-.092a1.521,1.521,0,0,0-.042-.21,1.47,1.47,0,0,0-.018-.216l-4.143-14.5c-.009-.031-.033-.054-.043-.084a1.494,1.494,0,0,0-.147-.284,1.551,1.551,0,0,0-.16-.237,1.294,1.294,0,0,0-.713-.435,1.471,1.471,0,0,0-.35-.071c-.028,0-.052-.016-.081-.016h-.518v-29h2.59a1.554,1.554,0,0,0,0-3.107h-8.287a1.554,1.554,0,1,0,0,3.107h2.589v29h-.518c-.031,0-.057.016-.087.018a1.472,1.472,0,0,0-.331.067,1.807,1.807,0,0,0-.727.439,2.637,2.637,0,0,0-.306.519c-.011.03-.035.053-.043.084l-4.144,14.5a1.538,1.538,0,0,0-.017.216,1.453,1.453,0,0,0-.042.21c0,.033.017.06.019.092a1.772,1.772,0,0,0,.505,1.053,1.509,1.509,0,0,0,.233.157,1.485,1.485,0,0,0,.288.149c.03.01.051.033.082.042a1.489,1.489,0,0,0,.424.06h12.435a1.493,1.493,0,0,0,.425-.06c.03-.009.052-.032.081-.042a1.5,1.5,0,0,0,.289-.149,1.035,1.035,0,0,0,.421-.381,1.041,1.041,0,0,0,.253-.514m-8.586-13.356h1.8l3.256,11.394h-8.31Z"
        transform="translate(-4449.302 4875.14)" fill="currentColor" />
    </g>
    <g transform="translate(-51.855 -0.14)">
      <path
        d="M1011.87,39.923a1.546,1.546,0,0,0-.035-.268,1.52,1.52,0,0,0-.068-.325c-.008-.021,0-.043-.013-.064l-6.215-14.5a1.45,1.45,0,0,0-.1-.149,1.554,1.554,0,0,0-.237-.343,1.5,1.5,0,0,0-.274-.185,1.52,1.52,0,0,0-.225-.145,1.561,1.561,0,0,0-.457-.092c-.046,0-.086-.027-.133-.027h-1.233l-1.371-10.051a1.443,1.443,0,0,0-.066-.188,1.646,1.646,0,0,0-.473-.766,1.534,1.534,0,0,0-.224-.151,1.2,1.2,0,0,0-.581-.2,1.453,1.453,0,0,0-.195-.039h-.518V1.554a1.554,1.554,0,1,0-3.107,0V12.43h-.518a1.45,1.45,0,0,0-.189.038,1.478,1.478,0,0,0-.316.064,1.506,1.506,0,0,0-.259.127,1.213,1.213,0,0,0-.445.39,1.175,1.175,0,0,0-.264.534,1.49,1.49,0,0,0-.067.191l-1.37,10.051h-1.233c-.016,0-.029.009-.045.009a1.552,1.552,0,0,0-.549.111,1.536,1.536,0,0,0-.18.116,1.511,1.511,0,0,0-.316.213,1.548,1.548,0,0,0-.227.329,1.42,1.42,0,0,0-.112.162l-6.215,14.5c-.009.021-.005.043-.013.064a1.866,1.866,0,0,0,.035,1.182c.009.02.007.041.017.061l4.143,8.287c.016.032.051.044.069.075a1.52,1.52,0,0,0,.437.474,1.449,1.449,0,0,0,.161.109,1.512,1.512,0,0,0,.723.2h16.573a1.512,1.512,0,0,0,.723-.2,1.444,1.444,0,0,0,.161-.109,1.521,1.521,0,0,0,.437-.474c.018-.031.053-.043.069-.075l4.143-8.287c.01-.02.008-.041.017-.061a3.908,3.908,0,0,0,.138-.589m-6.648,6.69H1003.5l1.621-6.482c.005-.022,0-.042,0-.064a1.657,1.657,0,0,0-.008-.412c0-.02,0-.04,0-.061l-3.618-12.663h1.6l5.528,12.9Zm-6.291,0V26.931h.4l3.7,12.964-1.679,6.717Zm-4.5,0L992.753,39.9l3.7-12.964h.4V46.612Zm-3.863,0-3.391-6.782,5.528-12.9h1.6l-3.618,12.663c-.006.02,0,.04-.005.061a1.681,1.681,0,0,0-.008.412c0,.022,0,.042,0,.064l1.62,6.482Zm6.611-31.075h1.431l1.13,8.287h-3.69Z"
        transform="translate(-216.067 4875.14)" fill="currentColor" />
    </g>
  </g>
</svg>