<svg xmlns="http://www.w3.org/2000/svg" width="178" height="60" viewBox="0 0 178 60">
  <g transform="translate(-174 -44)">
    <path
      d="M0,9.454A9.814,9.814,0,0,1,10.144.005H20.87A25.246,25.246,0,0,0,2.953,15.144,41.047,41.047,0,0,0,0,25.56ZM34.915.005h11A9.814,9.814,0,0,1,56.059,9.454v9.768C53.8,9.129,44.934,2.246,34.915.005M56.059,29.2V50.545a9.814,9.814,0,0,1-10.144,9.448H23.355V35.019c0-13.967,11.713-11.958,11.713-4.373V43.7s17.616-.885,20.992-14.5M17.866,59.989H10.144A9.813,9.813,0,0,1,0,50.545V34.457C1.857,47.333,11.567,55.774,17.866,59.989"
      transform="translate(174 44.001)" fill="#838f94" />
    <g transform="translate(-273 188.025)">
      <path
        d="M111.154,24.633a5.063,5.063,0,0,0-2.122.461,5.47,5.47,0,0,0-2.983,2.922,5.155,5.155,0,0,0-.432,2.091,5.37,5.37,0,0,0,.432,2.122,6.464,6.464,0,0,0,1.2,1.749,6.366,6.366,0,0,0,1.785,1.2,5.393,5.393,0,0,0,2.122.431,4.756,4.756,0,0,0,2.031-.431,5.452,5.452,0,0,0,1.6-1.2,5.573,5.573,0,0,0,1.045-1.75,6.144,6.144,0,0,0,.368-2.122,5.888,5.888,0,0,0-.368-2.091,5.138,5.138,0,0,0-1.045-1.757,5.025,5.025,0,0,0-1.6-1.172,4.49,4.49,0,0,0-2.031-.461m0-5.478a9.594,9.594,0,0,1,4.121.892,10.973,10.973,0,0,1,5.594,5.912,10.556,10.556,0,0,1,.837,4.152,10.42,10.42,0,0,1-.837,4.152,10.275,10.275,0,0,1-2.241,3.385,10.4,10.4,0,0,1-7.474,3.043,12.894,12.894,0,0,1-2.922-.3,15.645,15.645,0,0,1-2.615-.952v6.734h-5.442V30.11a9.934,9.934,0,0,1,.892-4.153,11.839,11.839,0,0,1,2.369-3.5,11.6,11.6,0,0,1,3.5-2.4,10.228,10.228,0,0,1,4.214-.9"
        transform="translate(413.533 -142.971)" fill="#ae0012" />
      <path
        d="M160.035,24.7a4.755,4.755,0,0,0-2.031.429,4.855,4.855,0,0,0-1.6,1.2,5.637,5.637,0,0,0-1.076,1.75,6.124,6.124,0,0,0,0,4.185,5.711,5.711,0,0,0,1.076,1.723A5.062,5.062,0,0,0,158,35.15a4.742,4.742,0,0,0,2.031.431,5.155,5.155,0,0,0,2.091-.431,5.487,5.487,0,0,0,1.75-1.169,5.279,5.279,0,0,0,1.2-5.908,5.751,5.751,0,0,0-2.951-2.953,5.17,5.17,0,0,0-2.091-.429m0-5.537a10.214,10.214,0,0,1,4.214.892,11.533,11.533,0,0,1,5.905,5.905,10.216,10.216,0,0,1,.892,4.214V40.689H165.51V39.457a16.694,16.694,0,0,1-2.554.927,12.383,12.383,0,0,1-2.921.3,10.565,10.565,0,0,1-4.122-.8,10.4,10.4,0,0,1-5.6-5.6,10.531,10.531,0,0,1-.8-4.122,11.221,11.221,0,0,1,.8-4.214,11.486,11.486,0,0,1,2.245-3.505,11.157,11.157,0,0,1,3.351-2.4,9.6,9.6,0,0,1,4.122-.9"
        transform="translate(386.213 -142.973)" fill="#ae0012" />
      <path
        d="M233.694,30.14a5.368,5.368,0,0,0-.431-2.122,5.233,5.233,0,0,0-1.2-1.75,5.614,5.614,0,0,0-1.75-1.23,4.851,4.851,0,0,0-2.091-.461,5.056,5.056,0,0,0-2.122.461,6.163,6.163,0,0,0-1.75,1.23,5.908,5.908,0,0,0-1.2,1.75,5.07,5.07,0,0,0-.461,2.122V40.69H217.7V30.14a5.071,5.071,0,0,0-.463-2.122,6.2,6.2,0,0,0-2.983-2.983,4.973,4.973,0,0,0-4.185,0,6.152,6.152,0,0,0-1.75,1.23,5.44,5.44,0,0,0-1.168,1.75,5.365,5.365,0,0,0-.431,2.122V40.69h-5.106V30.14a11.3,11.3,0,0,1,.8-4.244,11.121,11.121,0,0,1,2.245-3.476,10.687,10.687,0,0,1,3.353-2.369,9.793,9.793,0,0,1,4.151-.893,9.1,9.1,0,0,1,4.489,1.076,14.633,14.633,0,0,1,3.537,2.708,13.057,13.057,0,0,1,1.694-1.475,11.715,11.715,0,0,1,2-1.2,10.7,10.7,0,0,1,2.122-.8,8.3,8.3,0,0,1,2.215-.3,10.221,10.221,0,0,1,4.214.892,11.408,11.408,0,0,1,5.905,5.845,10.277,10.277,0,0,1,.892,4.244V40.69H233.7Z"
        transform="translate(357.366 -142.974)" fill="#ae0012" />
      <rect width="5.08" height="21.53" transform="translate(598.625 -123.815)" fill="#ae0012" />
      <path
        d="M306.366,30.142a11.253,11.253,0,0,1,.8-4.214,11.567,11.567,0,0,1,2.245-3.5,10.257,10.257,0,0,1,3.353-2.369,9.8,9.8,0,0,1,4.153-.893,10.548,10.548,0,0,1,3.433.57v5.948a4.9,4.9,0,0,0-1.158-.609,6.163,6.163,0,0,0-2.276-.4,4.478,4.478,0,0,0-2.031.461,4.834,4.834,0,0,0-1.6,1.2,5.231,5.231,0,0,0-1.045,1.723,5.893,5.893,0,0,0-.37,2.092V40.692h-5.506Z"
        transform="translate(299.365 -142.977)" fill="#ae0012" />
      <path
        d="M296.12,5.617a2.5,2.5,0,0,1-.766,1.841,2.589,2.589,0,0,1-4.442-1.841,2.5,2.5,0,0,1,.768-1.842,2.4,2.4,0,0,1,1.837-.766,2.5,2.5,0,0,1,1.838.766,2.51,2.51,0,0,1,.766,1.842"
        transform="translate(307.922 -134.033)" fill="#ae0012" />
      <path
        d="M342.478,5.61a2.117,2.117,0,0,0-.619-1.553,2.029,2.029,0,0,0-1.51-.626,2.063,2.063,0,0,0-1.525.626,2.122,2.122,0,0,0-.618,1.553,2.16,2.16,0,0,0,.611,1.574,2.081,2.081,0,0,0,1.532.618,2.046,2.046,0,0,0,1.517-.618,2.159,2.159,0,0,0,.612-1.574m-4.778,0a2.456,2.456,0,0,1,.781-1.854,2.606,2.606,0,0,1,1.87-.745,2.566,2.566,0,0,1,1.848.739,2.483,2.483,0,0,1,.786,1.862,2.493,2.493,0,0,1-.779,1.869,2.582,2.582,0,0,1-1.855.745,2.612,2.612,0,0,1-1.87-.745,2.493,2.493,0,0,1-.78-1.869m2.094-1.118v.94h.548a1.027,1.027,0,0,0,.575-.12.425.425,0,0,0,.169-.372c0-.3-.222-.45-.667-.45Zm0,1.321V7.12h-.465V4.113h1.153q1.067,0,1.068.858a.774.774,0,0,1-.718.827c-.023,0-.046,0-.069,0l.857,1.321h-.505l-.8-1.307Z"
        transform="translate(282.016 -134.034)" fill="#ae0012" />
    </g>
  </g>
</svg>