<svg xmlns="http://www.w3.org/2000/svg" width="145.55" height="155.78" viewBox="0 0 145.55 155.78">
  <path
    d="M0,24.546A25.481,25.481,0,0,1,26.338.015H54.186a65.548,65.548,0,0,0-46.519,39.3A106.573,106.573,0,0,0,0,66.363ZM90.652.015h28.561a25.481,25.481,0,0,1,26.338,24.531V49.907C139.675,23.7,116.665,5.831,90.652.015m54.9,75.8v55.424a25.481,25.481,0,0,1-26.338,24.531H60.638V90.923c0-36.263,30.411-31.048,30.411-11.354v33.882s45.737-2.3,54.5-37.64M46.388,155.754H26.338A25.479,25.479,0,0,1,0,131.235V89.463c4.821,33.43,30.031,55.347,46.388,66.29"
    transform="translate(0 0)" fill="#838f94" />
</svg>